<svg width="56" height="44" viewBox="0 0 56 44" fill="none" xmlns="http://www.w3.org/2000/svg">
<path d="M27.6656 7.72107C29.7977 7.72107 31.5261 5.99265 31.5261 3.86054C31.5261 1.72842 29.7977 0 27.6656 0C25.5335 0 23.8051 1.72842 23.8051 3.86054C23.8051 5.99265 25.5335 7.72107 27.6656 7.72107Z" fill="#077ABD"/>
<path d="M14.3091 9.03852C15.5588 9.03852 16.572 8.02538 16.572 6.77561C16.572 5.52584 15.5588 4.5127 14.3091 4.5127C13.0593 4.5127 12.0461 5.52584 12.0461 6.77561C12.0461 8.02538 13.0593 9.03852 14.3091 9.03852Z" fill="#077ABD"/>
<path d="M41.2892 9.10737C42.5389 9.10737 43.5521 8.09423 43.5521 6.84445C43.5521 5.59468 42.5389 4.58154 41.2892 4.58154C40.0394 4.58154 39.0262 5.59468 39.0262 6.84445C39.0262 8.09423 40.0394 9.10737 41.2892 9.10737Z" fill="#077ABD"/>
<path d="M2.77948 6.17485C2.77948 7.45389 1.74139 8.49131 0.463024 8.49131C0.384046 8.49131 0.307746 8.48662 0.231445 8.47993V3.86978C0.307746 3.86308 0.384046 3.8584 0.463024 3.8584C1.74139 3.8584 2.77948 4.89649 2.77948 6.17485Z" fill="#077ABD"/>
<path d="M55.5983 3.86978V8.47993C55.2884 8.50804 54.9792 8.49867 54.5141 8.29587C53.6614 7.92441 53.0503 7.10585 53.0503 6.17552C53.0503 4.89649 54.0877 3.8584 55.3667 3.8584C55.4457 3.8584 55.522 3.86308 55.5983 3.86978Z" fill="#077ABD"/>
<path d="M53.5134 9.88147C50.1569 14.586 44.617 14.1804 41.9258 9.79781C41.9258 9.79848 41.1614 8.94579 40.3087 9.79848C37.1222 15.0532 30.7344 13.6376 28.4942 9.46918C26.24 7.27052 25.8244 13.574 20.8494 13.2012C17.1428 13.2012 14.9676 10.0368 14.9676 10.0368C13.0976 7.79191 12.0689 13.4569 7.87635 13.1249C5.09674 13.1249 2.31646 10.3453 1.49188 9.93033C1.39014 9.88147 0.231579 9.64989 0 10.8085V37.276C8.50617 45.7474 46.564 44.8632 55.3674 36.7801V11.04C55.3667 11.04 55.3667 9.18674 53.5134 9.88147ZM42.162 13.0419C46.3318 16.7739 51.1207 14.2467 51.1207 14.2467C47.3351 19.415 42.162 19.6192 42.162 19.6192C42.162 19.6192 42.162 16.7231 42.162 13.0419ZM40.0772 13.153C40.0772 16.8315 40.0772 19.7276 40.0772 19.7276C40.0772 19.7276 34.9041 19.5234 31.1186 14.3551C31.1186 14.3551 35.9074 16.8851 40.0772 13.153ZM15.0573 13.0279C19.2271 16.7599 24.0159 14.2326 24.0159 14.2326C20.2303 19.401 15.0573 19.6051 15.0573 19.6051C15.0573 19.6051 15.0573 16.709 15.0573 13.0279ZM12.9724 12.9188C12.9724 16.5999 12.9724 19.496 12.9724 19.496C12.9724 19.496 7.79938 19.2919 4.01381 14.1235C4.01381 14.1235 8.80267 16.6508 12.9724 12.9188ZM1.85263 14.1884C7.29674 23.7829 21.3066 23.5138 26.4087 13.8203V30.7316C26.4087 30.7316 14.1303 30.5 1.85263 35.5967V14.1884ZM27.4514 41.328C12.9724 41.328 3.1919 37.276 3.1919 37.276C13.8887 31.7148 42.2022 32.012 52.3716 36.7593C52.3716 36.7593 41.9305 41.328 27.4514 41.328ZM53.5134 35.4669C41.2351 30.3702 28.9574 30.8333 28.9574 30.8333V13.6905C34.1057 23.4449 48.1168 23.5941 53.5134 14.0586V35.4669Z" fill="#077ABD"/>
</svg>
